#!OML:ASF \\sashay\E\Suitcase\Project 1\Capture day 1\Session 1\Male1.ASF
:FULLY-SPECIFIED
:DEGREES
314
root 0.52761 17.5358 -36.8713 10.0398 -4.22363 0.142309
lowerback 16.1908 -1.00793 7.58124
upperback 7.83033 0.0221414 13.1045
thorax -0.603932 -0.0962274 9.9757
lowerneck -12.0344 -6.33305 -4.71297
upperneck 24.1197 -6.66731 -4.82863
head 9.62504 -4.01808 -1.66487
rclavicle 7.95139e-015 -6.36111e-015
rhumerus -12.797 -6.90429 -58.7015
rradius 22.274
rwrist -5.55066
rhand -13.692 19.9259
rfingers 7.12502
rthumb 12.4261 -9.68474
lclavicle 7.95139e-015 -6.36111e-015
lhumerus -28.8875 -10.7061 98.8871
lradius 45.7153
lwrist -0.280495
lhand -1.27648 41.8309
lfingers 7.12502
lthumb 24.3672 70.3017
rfemur -22.3478 2.11642 21.0676
rtibia 30.4638
rfoot -18.0096 -3.30708
rtoes 17.8303
lfemur -21.9945 1.22039 -19.0542
ltibia 30.7739
lfoot -18.1808 4.80077
ltoes -2.27061
315
root 0.51044 17.5288 -36.8535 9.93221 -4.17514 -0.0842533
lowerback 16.1811 -0.96163 7.57002
upperback 7.80742 0.0846862 13.1357
thorax -0.631271 -0.0653587 10.0075
lowerneck -12.2187 -6.21802 -4.36938
upperneck 24.0702 -6.443 -5.36404
head 9.60881 -3.94532 -1.88267
rclavicle 2.70347e-014 -4.13472e-014
rhumerus -13.4494 -5.89426 -58.8562
rradius 22.8699
rwrist -6.21061
rhand -13.9934 20.0505
rfingers 7.12502
rthumb 12.1354 -9.57752
lclavicle 2.70347e-014 -4.13472e-014
lhumerus -29.1151 -10.6844 98.9651
lradius 45.6304
lwrist -0.302935
lhand -0.702344 42.5759
lfingers 7.12502
lthumb 24.9175 70.9716
rfemur -22.129 2.11033 21.4031
rtibia 30.4478
rfoot -18.071 -3.3695
rtoes 18.0886
lfemur -21.9142 1.28814 -18.7293
ltibia 31.0068
lfoot -18.3742 4.79206
ltoes -2.91244
316
root 0.492689 17.5232 -36.8382 9.90161 -4.17942 -0.0478797
lowerback 16.0329 -0.953446 7.34967
upperback 7.87221 0.0288931 13.0644
thorax -0.477747 -0.0975651 10.0567
lowerneck -12.4178 -6.00658 -4.5591
upperneck 23.7756 -6.10736 -5.32275
head 9.5556 -3.8013 -1.79685
rclavicle -4.77083e-015 0
rhumerus -13.207 -6.54978 -59.0452
rradius 22.5633
rwrist -5.35525
rhand -13.9561 19.7992
rfingers 7.12502
rthumb 12.1714 -9.82671
lclavicle -4.77083e-015 0
lhumerus -29.117 -10.5539 98.8887
lradius 45.4811
lwrist -0.299038
lhand -1.3767 42.1446
lfingers 7.12502
lthumb 24.2711 70.6283
rfemur -22.0163 2.12709 21.4283
rtibia 30.3828
rfoot -18.1343 -3.33871
rtoes 17.6656
lfemur -21.9571 1.41902 -18.7177
ltibia 31.2735
lfoot -18.4783 4.65445
ltoes -2.39687
317
root 0.480168 17.5222 -36.8152 9.79782 -4.148 -0.0569339
lowerback 15.8845 -0.967608 7.28615
upperback 7.89477 -0.0280407 12.9421
thorax -0.369983 -0.124403 9.95403
lowerneck -12.3823 -5.85784 -4.48573
upperneck 23.4349 -5.90133 -5.43322
head 9.42373 -3.7076 -1.80948
rclavicle -7.15625e-014 -6.99722e-014
rhumerus -13.7023 -5.78793 -59.3294
rradius 23.035
rwrist -5.93278
rhand -14.3456 20.0471
rfingers 7.12502
rthumb 11.7959 -9.60076
lclavicle -7.15625e-014 -6.99722e-014
lhumerus -28.9711 -10.4363 98.8098
lradius 44.9816
lwrist -0.542595
lhand -1.00483 42.3708
lfingers 7.12502
lthumb 24.6276 70.8063
rfemur -21.7544 1.84599 21.5178
rtibia 30.3098
rfoot -18.1192 -3.08497
rtoes 18.0272
lfemur -21.8937 1.4064 -18.6559
ltibia 31.5843
lfoot -18.6447 4.70271
ltoes -3.24408
318
root 0.463141 17.5287 -36.7981 9.82103 -4.34981 -0.312255
lowerback 15.7278 -0.78438 7.05218
upperback 7.93022 0.151244 13.0459
thorax -0.270808 -0.0441434 10.1774
lowerneck -12.5469 -5.74263 -4.33757
upperneck 23.1845 -5.70692 -5.70335
head 9.35421 -3.63281 -1.9009
rclavicle -2.22639e-014 -1.11319e-013
rhumerus -13.7453 -6.0188 -59.3608
rradius 23.0553
rwrist -5.63087
rhand -14.247 20.034
rfingers 7.12502
rthumb 11.891 -9.60832
lclavicle -2.22639e-014 -1.11319e-013
lhumerus -28.9786 -10.3118 98.9333
lradius 44.8586
lwrist -0.52711
lhand -1.25339 41.5717
lfingers 7.12502
lthumb 24.3893 70.0395
rfemur -21.689 2.12035 21.8277
rtibia 30.2434
rfoot -18.1842 -3.10519
rtoes 17.7507
lfemur -21.9885 1.48359 -18.3162
ltibia 31.8532
lfoot -18.4636 4.71241
ltoes -2.1811
